<svg fill="none" height="640" viewBox="0 0 1280 640" width="1280"
    xmlns="http://www.w3.org/2000/svg">
    <rect fill="url(#paint0_linear_1_2)" height="640" width="1280" />
    <path
        d="M277.21 375V265.909H315.349C322.949 265.909 329.217 267.223 334.153 269.851C339.089 272.443 342.764 275.941 345.179 280.344C347.594 284.712 348.801 289.56 348.801 294.886C348.801 299.574 347.967 303.445 346.298 306.499C344.664 309.553 342.498 311.967 339.799 313.743C337.136 315.518 334.241 316.832 331.116 317.685V318.75C334.455 318.963 337.81 320.135 341.184 322.266C344.558 324.396 347.381 327.45 349.653 331.428C351.926 335.405 353.062 340.27 353.062 346.023C353.062 351.491 351.82 356.41 349.334 360.778C346.848 365.146 342.924 368.608 337.562 371.165C332.2 373.722 325.222 375 316.628 375H277.21ZM290.42 363.281H316.628C325.257 363.281 331.383 361.612 335.005 358.274C338.663 354.901 340.491 350.817 340.491 346.023C340.491 342.33 339.55 338.92 337.668 335.795C335.786 332.635 333.105 330.114 329.625 328.232C326.145 326.314 322.026 325.355 317.267 325.355H290.42V363.281ZM290.42 313.849H314.923C318.901 313.849 322.487 313.068 325.683 311.506C328.915 309.943 331.472 307.741 333.354 304.901C335.271 302.06 336.23 298.722 336.23 294.886C336.23 290.092 334.561 286.026 331.223 282.688C327.885 279.315 322.594 277.628 315.349 277.628H290.42V313.849ZM385.635 265.909V375H373.064V265.909H385.635ZM460.222 341.548V293.182H472.794V375H460.222V361.151H459.37C457.453 365.305 454.47 368.839 450.421 371.751C446.373 374.627 441.259 376.065 435.08 376.065C429.967 376.065 425.421 374.947 421.444 372.71C417.467 370.437 414.342 367.028 412.069 362.482C409.796 357.901 408.66 352.131 408.66 345.17V293.182H421.231V344.318C421.231 350.284 422.9 355.043 426.238 358.594C429.612 362.145 433.909 363.92 439.129 363.92C442.254 363.92 445.432 363.121 448.664 361.523C451.931 359.925 454.665 357.475 456.867 354.173C459.104 350.87 460.222 346.662 460.222 341.548ZM495.818 375V293.182H507.963V305.54H508.815C510.307 301.491 513.006 298.207 516.912 295.685C520.818 293.164 525.222 291.903 530.122 291.903C531.045 291.903 532.2 291.921 533.585 291.957C534.969 291.992 536.017 292.045 536.727 292.116V304.901C536.301 304.794 535.325 304.634 533.798 304.421C532.306 304.173 530.726 304.048 529.057 304.048C525.08 304.048 521.528 304.883 518.403 306.552C515.314 308.185 512.864 310.458 511.053 313.37C509.277 316.246 508.389 319.531 508.389 323.224V375H495.818ZM608.731 265.909V375H595.521V265.909H608.731ZM633.513 375V293.182H645.658V305.966H646.724C648.428 301.598 651.18 298.207 654.98 295.792C658.78 293.342 663.343 292.116 668.67 292.116C674.067 292.116 678.56 293.342 682.146 295.792C685.768 298.207 688.592 301.598 690.616 305.966H691.468C693.563 301.74 696.706 298.384 700.896 295.898C705.087 293.377 710.112 292.116 715.971 292.116C723.286 292.116 729.27 294.407 733.922 298.988C738.574 303.533 740.9 310.618 740.9 320.241V375H728.329V320.241C728.329 314.205 726.678 309.89 723.375 307.298C720.072 304.705 716.184 303.409 711.71 303.409C705.957 303.409 701.5 305.149 698.339 308.629C695.179 312.074 693.599 316.442 693.599 321.733V375H680.815V318.963C680.815 314.311 679.305 310.565 676.287 307.724C673.268 304.847 669.38 303.409 664.621 303.409C661.354 303.409 658.3 304.279 655.46 306.019C652.654 307.759 650.381 310.174 648.641 313.263C646.937 316.317 646.085 319.851 646.085 323.864V375H633.513ZM787.961 376.918C782.777 376.918 778.071 375.941 773.846 373.988C769.62 371.999 766.264 369.141 763.778 365.412C761.292 361.648 760.049 357.102 760.049 351.776C760.049 347.088 760.973 343.288 762.819 340.376C764.666 337.429 767.134 335.121 770.223 333.452C773.313 331.783 776.722 330.54 780.451 329.723C784.215 328.871 787.997 328.196 791.797 327.699C796.768 327.06 800.799 326.58 803.888 326.261C807.013 325.906 809.286 325.32 810.706 324.503C812.162 323.686 812.89 322.266 812.89 320.241V319.815C812.89 314.56 811.452 310.476 808.576 307.564C805.735 304.652 801.42 303.196 795.632 303.196C789.63 303.196 784.925 304.51 781.516 307.138C778.107 309.766 775.71 312.571 774.325 315.554L762.393 311.293C764.524 306.321 767.365 302.45 770.916 299.68C774.502 296.875 778.409 294.922 782.635 293.821C786.896 292.685 791.086 292.116 795.206 292.116C797.833 292.116 800.852 292.436 804.261 293.075C807.706 293.679 811.026 294.94 814.222 296.857C817.453 298.775 820.135 301.669 822.265 305.54C824.396 309.411 825.461 314.595 825.461 321.094V375H812.89V363.92H812.251C811.399 365.696 809.978 367.596 807.99 369.62C806.001 371.644 803.355 373.366 800.053 374.787C796.75 376.207 792.72 376.918 787.961 376.918ZM789.879 365.625C794.85 365.625 799.041 364.648 802.45 362.695C805.895 360.742 808.487 358.221 810.227 355.131C812.002 352.042 812.89 348.793 812.89 345.384V333.878C812.358 334.517 811.186 335.103 809.375 335.636C807.599 336.133 805.539 336.577 803.196 336.967C800.887 337.322 798.632 337.642 796.431 337.926C794.265 338.175 792.507 338.388 791.157 338.565C787.89 338.991 784.836 339.684 781.995 340.643C779.19 341.566 776.917 342.969 775.177 344.851C773.473 346.697 772.62 349.219 772.62 352.415C772.62 356.783 774.236 360.085 777.468 362.322C780.735 364.524 784.872 365.625 789.879 365.625ZM881.432 407.386C875.359 407.386 870.139 406.605 865.771 405.043C861.403 403.516 857.763 401.491 854.851 398.97C851.975 396.484 849.684 393.821 847.98 390.98L857.994 383.949C859.131 385.44 860.569 387.145 862.309 389.062C864.049 391.016 866.428 392.702 869.447 394.123C872.501 395.579 876.496 396.307 881.432 396.307C888.037 396.307 893.488 394.709 897.785 391.513C902.082 388.317 904.23 383.31 904.23 376.491V359.872H903.165C902.241 361.364 900.927 363.21 899.223 365.412C897.554 367.578 895.139 369.513 891.979 371.218C888.854 372.887 884.628 373.722 879.301 373.722C872.696 373.722 866.765 372.159 861.51 369.034C856.29 365.909 852.153 361.364 849.099 355.398C846.08 349.432 844.571 342.187 844.571 333.665C844.571 325.284 846.045 317.987 848.992 311.772C851.939 305.522 856.041 300.692 861.297 297.283C866.552 293.839 872.625 292.116 879.514 292.116C884.841 292.116 889.067 293.004 892.192 294.78C895.352 296.52 897.767 298.509 899.436 300.746C901.14 302.947 902.454 304.759 903.378 306.179H904.656V293.182H916.801V377.344C916.801 384.375 915.203 390.092 912.007 394.496C908.846 398.935 904.585 402.184 899.223 404.244C893.896 406.339 887.966 407.386 881.432 407.386ZM881.006 362.429C886.048 362.429 890.309 361.275 893.79 358.967C897.27 356.658 899.915 353.338 901.726 349.006C903.537 344.673 904.443 339.489 904.443 333.452C904.443 327.557 903.555 322.354 901.78 317.844C900.004 313.335 897.376 309.801 893.896 307.244C890.416 304.687 886.119 303.409 881.006 303.409C875.679 303.409 871.24 304.759 867.689 307.457C864.173 310.156 861.528 313.778 859.752 318.324C858.012 322.869 857.142 327.912 857.142 333.452C857.142 339.134 858.03 344.158 859.805 348.526C861.616 352.859 864.28 356.268 867.795 358.754C871.346 361.204 875.75 362.429 881.006 362.429ZM974.116 376.705C966.233 376.705 959.432 374.964 953.715 371.484C948.033 367.969 943.648 363.068 940.558 356.783C937.504 350.462 935.977 343.111 935.977 334.73C935.977 326.349 937.504 318.963 940.558 312.571C943.648 306.143 947.944 301.136 953.449 297.55C958.988 293.928 965.452 292.116 972.838 292.116C977.099 292.116 981.307 292.827 985.462 294.247C989.617 295.668 993.399 297.976 996.808 301.172C1000.22 304.332 1002.93 308.523 1004.96 313.743C1006.98 318.963 1007.99 325.391 1007.99 333.026V338.352H944.926V327.486H995.21C995.21 322.869 994.287 318.75 992.44 315.128C990.629 311.506 988.037 308.647 984.663 306.552C981.325 304.457 977.383 303.409 972.838 303.409C967.831 303.409 963.498 304.652 959.841 307.138C956.219 309.588 953.431 312.784 951.478 316.726C949.525 320.668 948.548 324.893 948.548 329.403V336.648C948.548 342.827 949.613 348.065 951.744 352.362C953.91 356.623 956.911 359.872 960.746 362.109C964.582 364.311 969.038 365.412 974.116 365.412C977.419 365.412 980.402 364.95 983.065 364.027C985.764 363.068 988.09 361.648 990.043 359.766C991.996 357.848 993.506 355.469 994.571 352.628L1006.72 356.037C1005.44 360.156 1003.29 363.778 1000.27 366.903C997.252 369.993 993.523 372.408 989.084 374.148C984.645 375.852 979.656 376.705 974.116 376.705Z"
        fill="white" />
    <path
        d="M412.341 516.818V520.227H398.227V516.818H412.341ZM402.455 543V513.205C402.455 511.705 402.807 510.455 403.511 509.455C404.216 508.455 405.131 507.705 406.256 507.205C407.381 506.705 408.568 506.455 409.818 506.455C410.807 506.455 411.614 506.534 412.239 506.693C412.864 506.852 413.33 507 413.636 507.136L412.477 510.614C412.273 510.545 411.989 510.46 411.625 510.358C411.273 510.256 410.807 510.205 410.227 510.205C408.898 510.205 407.938 510.54 407.347 511.21C406.767 511.881 406.477 512.864 406.477 514.159V543H402.455ZM427.537 543.545C425.173 543.545 423.099 542.983 421.315 541.858C419.543 540.733 418.156 539.159 417.156 537.136C416.168 535.114 415.673 532.75 415.673 530.045C415.673 527.318 416.168 524.937 417.156 522.903C418.156 520.869 419.543 519.29 421.315 518.165C423.099 517.04 425.173 516.477 427.537 516.477C429.901 516.477 431.969 517.04 433.741 518.165C435.526 519.29 436.912 520.869 437.901 522.903C438.901 524.937 439.401 527.318 439.401 530.045C439.401 532.75 438.901 535.114 437.901 537.136C436.912 539.159 435.526 540.733 433.741 541.858C431.969 542.983 429.901 543.545 427.537 543.545ZM427.537 539.932C429.332 539.932 430.81 539.472 431.969 538.551C433.128 537.631 433.986 536.42 434.543 534.92C435.099 533.42 435.378 531.795 435.378 530.045C435.378 528.295 435.099 526.665 434.543 525.153C433.986 523.642 433.128 522.42 431.969 521.489C430.81 520.557 429.332 520.091 427.537 520.091C425.741 520.091 424.264 520.557 423.105 521.489C421.946 522.42 421.088 523.642 420.531 525.153C419.974 526.665 419.696 528.295 419.696 530.045C419.696 531.795 419.974 533.42 420.531 534.92C421.088 536.42 421.946 537.631 423.105 538.551C424.264 539.472 425.741 539.932 427.537 539.932ZM445.541 543V516.818H449.428V520.773H449.7C450.178 519.477 451.041 518.426 452.291 517.619C453.541 516.812 454.95 516.409 456.518 516.409C456.814 516.409 457.183 516.415 457.626 516.426C458.07 516.437 458.405 516.455 458.632 516.477V520.568C458.496 520.534 458.183 520.483 457.695 520.415C457.217 520.335 456.712 520.295 456.178 520.295C454.905 520.295 453.768 520.562 452.768 521.097C451.78 521.619 450.996 522.347 450.416 523.278C449.848 524.199 449.564 525.25 449.564 526.432V543H445.541ZM490.81 508.091H495.037V533.045C495.037 535.273 494.628 537.165 493.81 538.722C492.991 540.278 491.838 541.46 490.349 542.267C488.861 543.074 487.105 543.477 485.082 543.477C483.173 543.477 481.474 543.131 479.986 542.438C478.497 541.733 477.327 540.733 476.474 539.438C475.622 538.142 475.196 536.602 475.196 534.818H479.355C479.355 535.807 479.599 536.67 480.088 537.409C480.588 538.136 481.27 538.705 482.134 539.114C482.997 539.523 483.98 539.727 485.082 539.727C486.298 539.727 487.332 539.472 488.185 538.96C489.037 538.449 489.685 537.699 490.128 536.71C490.582 535.71 490.81 534.489 490.81 533.045V508.091ZM513.94 543.545C511.418 543.545 509.241 542.989 507.412 541.875C505.594 540.75 504.19 539.182 503.202 537.17C502.224 535.148 501.736 532.795 501.736 530.114C501.736 527.432 502.224 525.068 503.202 523.023C504.19 520.966 505.565 519.364 507.327 518.216C509.099 517.057 511.168 516.477 513.531 516.477C514.895 516.477 516.241 516.705 517.571 517.159C518.901 517.614 520.111 518.352 521.202 519.375C522.293 520.386 523.162 521.727 523.81 523.398C524.457 525.068 524.781 527.125 524.781 529.568V531.273H504.599V527.795H520.69C520.69 526.318 520.395 525 519.804 523.841C519.224 522.682 518.395 521.767 517.315 521.097C516.247 520.426 514.986 520.091 513.531 520.091C511.929 520.091 510.543 520.489 509.372 521.284C508.213 522.068 507.321 523.091 506.696 524.352C506.071 525.614 505.759 526.966 505.759 528.409V530.727C505.759 532.705 506.099 534.381 506.781 535.756C507.474 537.119 508.435 538.159 509.662 538.875C510.889 539.58 512.315 539.932 513.94 539.932C514.997 539.932 515.952 539.784 516.804 539.489C517.668 539.182 518.412 538.727 519.037 538.125C519.662 537.511 520.145 536.75 520.486 535.841L524.372 536.932C523.963 538.25 523.276 539.409 522.31 540.409C521.344 541.398 520.151 542.17 518.73 542.727C517.31 543.273 515.713 543.545 513.94 543.545ZM542.287 516.818V520.227H528.719V516.818H542.287ZM532.673 510.545H536.696V535.5C536.696 536.636 536.861 537.489 537.19 538.057C537.531 538.614 537.963 538.989 538.486 539.182C539.02 539.364 539.582 539.455 540.173 539.455C540.616 539.455 540.98 539.432 541.264 539.386C541.548 539.33 541.776 539.284 541.946 539.25L542.764 542.864C542.491 542.966 542.111 543.068 541.622 543.17C541.134 543.284 540.514 543.341 539.764 543.341C538.628 543.341 537.514 543.097 536.423 542.608C535.344 542.119 534.446 541.375 533.73 540.375C533.026 539.375 532.673 538.114 532.673 536.591V510.545ZM548.338 552.818V516.818H552.224V520.977H552.702C552.997 520.523 553.406 519.943 553.929 519.239C554.463 518.523 555.224 517.886 556.213 517.33C557.213 516.761 558.565 516.477 560.27 516.477C562.474 516.477 564.418 517.028 566.099 518.131C567.781 519.233 569.094 520.795 570.037 522.818C570.98 524.841 571.452 527.227 571.452 529.977C571.452 532.75 570.98 535.153 570.037 537.188C569.094 539.21 567.787 540.778 566.116 541.892C564.446 542.994 562.52 543.545 560.338 543.545C558.656 543.545 557.31 543.267 556.298 542.71C555.287 542.142 554.509 541.5 553.963 540.784C553.418 540.057 552.997 539.455 552.702 538.977H552.361V552.818H548.338ZM552.293 529.909C552.293 531.886 552.582 533.631 553.162 535.142C553.741 536.642 554.588 537.818 555.702 538.67C556.815 539.511 558.179 539.932 559.793 539.932C561.474 539.932 562.878 539.489 564.003 538.602C565.139 537.705 565.991 536.5 566.56 534.989C567.139 533.466 567.429 531.773 567.429 529.909C567.429 528.068 567.145 526.409 566.577 524.932C566.02 523.443 565.173 522.267 564.037 521.403C562.912 520.528 561.497 520.091 559.793 520.091C558.156 520.091 556.781 520.506 555.668 521.335C554.554 522.153 553.713 523.301 553.145 524.778C552.577 526.244 552.293 527.955 552.293 529.909ZM585.293 543.614C583.634 543.614 582.128 543.301 580.776 542.676C579.423 542.04 578.349 541.125 577.554 539.932C576.759 538.727 576.361 537.273 576.361 535.568C576.361 534.068 576.656 532.852 577.247 531.92C577.838 530.977 578.628 530.239 579.616 529.705C580.605 529.17 581.696 528.773 582.889 528.511C584.094 528.239 585.304 528.023 586.52 527.864C588.111 527.659 589.401 527.506 590.389 527.403C591.389 527.29 592.116 527.102 592.571 526.841C593.037 526.58 593.27 526.125 593.27 525.477V525.341C593.27 523.659 592.81 522.352 591.889 521.42C590.98 520.489 589.599 520.023 587.747 520.023C585.827 520.023 584.321 520.443 583.23 521.284C582.139 522.125 581.372 523.023 580.929 523.977L577.111 522.614C577.793 521.023 578.702 519.784 579.838 518.898C580.986 518 582.236 517.375 583.588 517.023C584.952 516.659 586.293 516.477 587.611 516.477C588.452 516.477 589.418 516.58 590.509 516.784C591.611 516.977 592.673 517.381 593.696 517.994C594.73 518.608 595.588 519.534 596.27 520.773C596.952 522.011 597.293 523.67 597.293 525.75V543H593.27V539.455H593.065C592.793 540.023 592.338 540.631 591.702 541.278C591.065 541.926 590.219 542.477 589.162 542.932C588.105 543.386 586.815 543.614 585.293 543.614ZM585.906 540C587.497 540 588.838 539.688 589.929 539.062C591.031 538.438 591.861 537.631 592.418 536.642C592.986 535.653 593.27 534.614 593.27 533.523V529.841C593.099 530.045 592.724 530.233 592.145 530.403C591.577 530.562 590.918 530.705 590.168 530.83C589.429 530.943 588.707 531.045 588.003 531.136C587.31 531.216 586.747 531.284 586.315 531.341C585.27 531.477 584.293 531.699 583.384 532.006C582.486 532.301 581.759 532.75 581.202 533.352C580.656 533.943 580.384 534.75 580.384 535.773C580.384 537.17 580.901 538.227 581.935 538.943C582.98 539.648 584.304 540 585.906 540ZM615.271 543.545C612.817 543.545 610.703 542.966 608.93 541.807C607.158 540.648 605.794 539.051 604.839 537.017C603.885 534.983 603.408 532.659 603.408 530.045C603.408 527.386 603.896 525.04 604.874 523.006C605.862 520.96 607.237 519.364 608.999 518.216C610.771 517.057 612.839 516.477 615.203 516.477C617.044 516.477 618.703 516.818 620.18 517.5C621.658 518.182 622.868 519.136 623.811 520.364C624.754 521.591 625.339 523.023 625.567 524.659H621.544C621.237 523.466 620.555 522.409 619.499 521.489C618.453 520.557 617.044 520.091 615.271 520.091C613.703 520.091 612.328 520.5 611.146 521.318C609.976 522.125 609.061 523.267 608.402 524.744C607.754 526.21 607.43 527.932 607.43 529.909C607.43 531.932 607.749 533.693 608.385 535.193C609.033 536.693 609.942 537.858 611.112 538.688C612.294 539.517 613.68 539.932 615.271 539.932C616.317 539.932 617.266 539.75 618.118 539.386C618.97 539.023 619.692 538.5 620.283 537.818C620.874 537.136 621.294 536.318 621.544 535.364H625.567C625.339 536.909 624.777 538.301 623.879 539.54C622.993 540.767 621.817 541.744 620.351 542.472C618.896 543.188 617.203 543.545 615.271 543.545ZM635.197 533.455L635.129 528.477H635.947L647.402 516.818H652.379L640.175 529.159H639.834L635.197 533.455ZM631.447 543V508.091H635.47V543H631.447ZM648.084 543L637.857 530.045L640.72 527.25L653.197 543H648.084ZM699.693 519H695.466C695.216 517.784 694.778 516.716 694.153 515.795C693.54 514.875 692.79 514.102 691.903 513.477C691.028 512.841 690.057 512.364 688.989 512.045C687.92 511.727 686.807 511.568 685.648 511.568C683.534 511.568 681.619 512.102 679.903 513.17C678.199 514.239 676.841 515.812 675.83 517.892C674.83 519.972 674.33 522.523 674.33 525.545C674.33 528.568 674.83 531.119 675.83 533.199C676.841 535.278 678.199 536.852 679.903 537.92C681.619 538.989 683.534 539.523 685.648 539.523C686.807 539.523 687.92 539.364 688.989 539.045C690.057 538.727 691.028 538.256 691.903 537.631C692.79 536.994 693.54 536.216 694.153 535.295C694.778 534.364 695.216 533.295 695.466 532.091H699.693C699.375 533.875 698.795 535.472 697.955 536.881C697.114 538.29 696.068 539.489 694.818 540.477C693.568 541.455 692.165 542.199 690.608 542.71C689.063 543.222 687.409 543.477 685.648 543.477C682.67 543.477 680.023 542.75 677.705 541.295C675.386 539.841 673.563 537.773 672.233 535.091C670.903 532.409 670.239 529.227 670.239 525.545C670.239 521.864 670.903 518.682 672.233 516C673.563 513.318 675.386 511.25 677.705 509.795C680.023 508.341 682.67 507.614 685.648 507.614C687.409 507.614 689.063 507.869 690.608 508.381C692.165 508.892 693.568 509.642 694.818 510.631C696.068 511.608 697.114 512.801 697.955 514.21C698.795 515.608 699.375 517.205 699.693 519ZM716.615 543.545C714.251 543.545 712.178 542.983 710.393 541.858C708.621 540.733 707.234 539.159 706.234 537.136C705.246 535.114 704.751 532.75 704.751 530.045C704.751 527.318 705.246 524.937 706.234 522.903C707.234 520.869 708.621 519.29 710.393 518.165C712.178 517.04 714.251 516.477 716.615 516.477C718.979 516.477 721.047 517.04 722.82 518.165C724.604 519.29 725.99 520.869 726.979 522.903C727.979 524.937 728.479 527.318 728.479 530.045C728.479 532.75 727.979 535.114 726.979 537.136C725.99 539.159 724.604 540.733 722.82 541.858C721.047 542.983 718.979 543.545 716.615 543.545ZM716.615 539.932C718.411 539.932 719.888 539.472 721.047 538.551C722.206 537.631 723.064 536.42 723.621 534.92C724.178 533.42 724.456 531.795 724.456 530.045C724.456 528.295 724.178 526.665 723.621 525.153C723.064 523.642 722.206 522.42 721.047 521.489C719.888 520.557 718.411 520.091 716.615 520.091C714.82 520.091 713.342 520.557 712.183 521.489C711.024 522.42 710.166 523.642 709.609 525.153C709.053 526.665 708.774 528.295 708.774 530.045C708.774 531.795 709.053 533.42 709.609 534.92C710.166 536.42 711.024 537.631 712.183 538.551C713.342 539.472 714.82 539.932 716.615 539.932ZM734.619 543V516.818H738.506V520.909H738.847C739.392 519.511 740.273 518.426 741.489 517.653C742.705 516.869 744.165 516.477 745.869 516.477C747.597 516.477 749.034 516.869 750.182 517.653C751.341 518.426 752.244 519.511 752.892 520.909H753.165C753.835 519.557 754.841 518.483 756.182 517.688C757.523 516.881 759.131 516.477 761.006 516.477C763.347 516.477 765.261 517.21 766.75 518.676C768.239 520.131 768.983 522.398 768.983 525.477V543H764.96V525.477C764.96 523.545 764.432 522.165 763.375 521.335C762.318 520.506 761.074 520.091 759.642 520.091C757.801 520.091 756.375 520.648 755.364 521.761C754.352 522.864 753.847 524.261 753.847 525.955V543H749.756V525.068C749.756 523.58 749.273 522.381 748.307 521.472C747.341 520.551 746.097 520.091 744.574 520.091C743.528 520.091 742.551 520.369 741.642 520.926C740.744 521.483 740.017 522.256 739.46 523.244C738.915 524.222 738.642 525.352 738.642 526.636V543H734.619ZM776.338 552.818V516.818H780.224V520.977H780.702C780.997 520.523 781.406 519.943 781.929 519.239C782.463 518.523 783.224 517.886 784.213 517.33C785.213 516.761 786.565 516.477 788.27 516.477C790.474 516.477 792.418 517.028 794.099 518.131C795.781 519.233 797.094 520.795 798.037 522.818C798.98 524.841 799.452 527.227 799.452 529.977C799.452 532.75 798.98 535.153 798.037 537.188C797.094 539.21 795.787 540.778 794.116 541.892C792.446 542.994 790.52 543.545 788.338 543.545C786.656 543.545 785.31 543.267 784.298 542.71C783.287 542.142 782.509 541.5 781.963 540.784C781.418 540.057 780.997 539.455 780.702 538.977H780.361V552.818H776.338ZM780.293 529.909C780.293 531.886 780.582 533.631 781.162 535.142C781.741 536.642 782.588 537.818 783.702 538.67C784.815 539.511 786.179 539.932 787.793 539.932C789.474 539.932 790.878 539.489 792.003 538.602C793.139 537.705 793.991 536.5 794.56 534.989C795.139 533.466 795.429 531.773 795.429 529.909C795.429 528.068 795.145 526.409 794.577 524.932C794.02 523.443 793.173 522.267 792.037 521.403C790.912 520.528 789.497 520.091 787.793 520.091C786.156 520.091 784.781 520.506 783.668 521.335C782.554 522.153 781.713 523.301 781.145 524.778C780.577 526.244 780.293 527.955 780.293 529.909ZM816.224 543.545C813.861 543.545 811.787 542.983 810.003 541.858C808.23 540.733 806.844 539.159 805.844 537.136C804.855 535.114 804.361 532.75 804.361 530.045C804.361 527.318 804.855 524.937 805.844 522.903C806.844 520.869 808.23 519.29 810.003 518.165C811.787 517.04 813.861 516.477 816.224 516.477C818.588 516.477 820.656 517.04 822.429 518.165C824.213 519.29 825.599 520.869 826.588 522.903C827.588 524.937 828.088 527.318 828.088 530.045C828.088 532.75 827.588 535.114 826.588 537.136C825.599 539.159 824.213 540.733 822.429 541.858C820.656 542.983 818.588 543.545 816.224 543.545ZM816.224 539.932C818.02 539.932 819.497 539.472 820.656 538.551C821.815 537.631 822.673 536.42 823.23 534.92C823.787 533.42 824.065 531.795 824.065 530.045C824.065 528.295 823.787 526.665 823.23 525.153C822.673 523.642 821.815 522.42 820.656 521.489C819.497 520.557 818.02 520.091 816.224 520.091C814.429 520.091 812.952 520.557 811.793 521.489C810.634 522.42 809.776 523.642 809.219 525.153C808.662 526.665 808.384 528.295 808.384 530.045C808.384 531.795 808.662 533.42 809.219 534.92C809.776 536.42 810.634 537.631 811.793 538.551C812.952 539.472 814.429 539.932 816.224 539.932ZM852.774 522.682L849.161 523.705C848.933 523.102 848.598 522.517 848.155 521.949C847.723 521.369 847.132 520.892 846.382 520.517C845.632 520.142 844.672 519.955 843.501 519.955C841.899 519.955 840.564 520.324 839.496 521.062C838.439 521.79 837.911 522.716 837.911 523.841C837.911 524.841 838.274 525.631 839.001 526.21C839.729 526.79 840.865 527.273 842.411 527.659L846.297 528.614C848.638 529.182 850.382 530.051 851.53 531.222C852.678 532.381 853.251 533.875 853.251 535.705C853.251 537.205 852.82 538.545 851.956 539.727C851.104 540.909 849.911 541.841 848.376 542.523C846.842 543.205 845.058 543.545 843.024 543.545C840.354 543.545 838.143 542.966 836.393 541.807C834.643 540.648 833.536 538.955 833.07 536.727L836.888 535.773C837.251 537.182 837.939 538.239 838.95 538.943C839.973 539.648 841.308 540 842.956 540C844.831 540 846.32 539.602 847.422 538.807C848.536 538 849.092 537.034 849.092 535.909C849.092 535 848.774 534.239 848.138 533.625C847.501 533 846.524 532.534 845.206 532.227L840.842 531.205C838.445 530.636 836.683 529.756 835.558 528.562C834.445 527.358 833.888 525.852 833.888 524.045C833.888 522.568 834.303 521.261 835.132 520.125C835.973 518.989 837.115 518.097 838.558 517.449C840.013 516.801 841.661 516.477 843.501 516.477C846.092 516.477 848.126 517.045 849.604 518.182C851.092 519.318 852.149 520.818 852.774 522.682ZM870.284 543.545C867.761 543.545 865.585 542.989 863.756 541.875C861.938 540.75 860.534 539.182 859.545 537.17C858.568 535.148 858.08 532.795 858.08 530.114C858.08 527.432 858.568 525.068 859.545 523.023C860.534 520.966 861.909 519.364 863.67 518.216C865.443 517.057 867.511 516.477 869.875 516.477C871.239 516.477 872.585 516.705 873.915 517.159C875.244 517.614 876.455 518.352 877.545 519.375C878.636 520.386 879.506 521.727 880.153 523.398C880.801 525.068 881.125 527.125 881.125 529.568V531.273H860.943V527.795H877.034C877.034 526.318 876.739 525 876.148 523.841C875.568 522.682 874.739 521.767 873.659 521.097C872.591 520.426 871.33 520.091 869.875 520.091C868.273 520.091 866.886 520.489 865.716 521.284C864.557 522.068 863.665 523.091 863.04 524.352C862.415 525.614 862.102 526.966 862.102 528.409V530.727C862.102 532.705 862.443 534.381 863.125 535.756C863.818 537.119 864.778 538.159 866.006 538.875C867.233 539.58 868.659 539.932 870.284 539.932C871.341 539.932 872.295 539.784 873.148 539.489C874.011 539.182 874.756 538.727 875.381 538.125C876.006 537.511 876.489 536.75 876.83 535.841L880.716 536.932C880.307 538.25 879.619 539.409 878.653 540.409C877.688 541.398 876.494 542.17 875.074 542.727C873.653 543.273 872.057 543.545 870.284 543.545Z"
        fill="white" />
    <defs>
        <linearGradient gradientUnits="userSpaceOnUse" id="paint0_linear_1_2" x1="9.53674e-06" x2="1280" y1="320"
            y2="320">
            <stop stop-color="#506EDA" />
            <stop offset="0.932292" stop-color="#9D3AFF" />
        </linearGradient>
    </defs>
</svg>
